<svg width="205" height="50" viewBox="0 0 205 50" fill="none" xmlns="http://www.w3.org/2000/svg"><path d="M0 0h8.384v48.448H0V0zm57.849 30.976L45.625 13.632h9.856l7.36 10.816 7.296-10.816h9.792l-12.16 17.344 12.096 17.472h-9.792l-7.232-10.816-7.296 10.816h-9.856l12.16-17.472zm40.616 18.24c-3.5 0-6.614-.81-9.344-2.432-2.688-1.621-4.8-3.819-6.337-6.592-1.493-2.773-2.24-5.845-2.24-9.216 0-3.413.747-6.485 2.24-9.216 1.536-2.773 3.606-4.95 6.209-6.528 2.645-1.579 5.589-2.368 8.832-2.368 3.498 0 6.528.768 9.087 2.304 2.56 1.493 4.502 3.541 5.825 6.144 1.365 2.603 2.048 5.461 2.048 8.576 0 1.45-.15 2.624-.448 3.52H89.249c.255 2.56 1.237 4.608 2.944 6.144 1.706 1.536 3.818 2.304 6.335 2.304 1.878 0 3.478-.384 4.8-1.152a9.038 9.038 0 003.264-3.328l6.785 3.328c-1.067 2.56-2.945 4.63-5.633 6.208-2.687 1.536-5.781 2.304-9.28 2.304zm7.36-22.208c-.214-2.133-1.046-3.861-2.497-5.184-1.45-1.365-3.285-2.048-5.504-2.048-2.133 0-3.946.64-5.44 1.92-1.493 1.237-2.474 3.008-2.944 5.312h16.385zm11.795-13.376h7.872v4.288c.896-1.621 2.197-2.859 3.904-3.712 1.749-.896 3.733-1.344 5.952-1.344 2.517 0 4.779.555 6.784 1.664a11.722 11.722 0 014.672 4.672c1.109 2.005 1.664 4.288 1.664 6.848v22.4h-8.384V28.032c0-2.261-.661-4.075-1.984-5.44-1.28-1.365-2.965-2.048-5.056-2.048s-3.797.683-5.12 2.048c-1.28 1.365-1.92 3.179-1.92 5.44v20.416h-8.384V13.632zm50.61 35.584c-3.328 0-6.336-.79-9.024-2.368-2.646-1.621-4.737-3.819-6.272-6.592-1.536-2.773-2.304-5.845-2.304-9.216 0-3.37.768-6.443 2.304-9.216 1.535-2.773 3.647-4.95 6.336-6.528 2.688-1.621 5.653-2.432 8.895-2.432 2.219 0 4.246.384 6.08 1.152 1.835.725 3.371 1.77 4.609 3.136V0h8.384v48.448h-7.937v-3.84c-1.28 1.493-2.88 2.645-4.8 3.456-1.92.768-4.01 1.152-6.271 1.152zm-8.897-18.176c0 2.005.406 3.819 1.216 5.44.854 1.579 2.027 2.816 3.521 3.712 1.493.896 3.178 1.344 5.056 1.344 1.877 0 3.541-.448 4.992-1.344 1.493-.896 2.645-2.133 3.456-3.712.853-1.621 1.28-3.435 1.28-5.44 0-2.005-.427-3.797-1.28-5.376-.811-1.621-1.963-2.88-3.456-3.776-1.494-.896-3.158-1.344-4.992-1.344-1.878 0-3.563.47-5.056 1.408-1.494.896-2.667 2.155-3.521 3.776-.81 1.579-1.216 3.35-1.216 5.312zm40.44 17.408c-1.365 0-2.517-.448-3.456-1.344-.896-.939-1.344-2.09-1.344-3.456 0-1.323.448-2.432 1.344-3.328.939-.939 2.091-1.408 3.456-1.408 1.323 0 2.433.448 3.329 1.344.895.896 1.343 2.027 1.343 3.392 0 1.365-.448 2.517-1.343 3.456-.854.896-1.963 1.344-3.329 1.344z" fill="#121212"/><path d="M28.013 49.448c3.498 0 6.613-.81 9.344-2.432 2.688-1.621 4.8-3.819 6.336-6.592 1.493-2.773 2.24-5.845 2.24-9.216 0-3.413-.747-6.485-2.24-9.216-1.536-2.773-3.606-4.95-6.208-6.528-2.646-1.579-5.59-2.368-8.832-2.368-3.5 0-6.528.768-9.088 2.304-2.56 1.493-4.502 3.541-5.824 6.144-1.366 2.603-2.048 5.461-2.048 8.576 0 1.45.149 2.624.448 3.52h25.088c-.256 2.56-1.238 4.608-2.944 6.144-1.707 1.536-3.819 2.304-6.336 2.304-1.878 0-3.478-.384-4.8-1.152a9.048 9.048 0 01-3.264-3.328L13.1 40.936c1.066 2.56 2.944 4.63 5.632 6.208 2.688 1.536 5.781 2.304 9.28 2.304zm-7.36-22.208c.213-2.133 1.045-3.861 2.496-5.184 1.45-1.365 3.285-2.048 5.504-2.048 2.133 0 3.946.64 5.44 1.92 1.493 1.237 2.474 3.008 2.944 5.312H20.653z" fill="#121212"/></svg>